HIERARCHY
ROOT Hips
{
	OFFSET 0.000000 8.830580 0.000000
	CHANNELS 6 Xposition Yposition Zposition Zrotation Yrotation Xrotation 
	JOINT Spine
	{
		OFFSET 0.000000 0.010000 0.000000
		CHANNELS 3 Zrotation Yrotation Xrotation
		JOINT Spine1
		{
			OFFSET 0.000000 2.459130 0.000000
			CHANNELS 3 Zrotation Yrotation Xrotation
			JOINT Neck
			{
				OFFSET 0.000000 2.484630 0.000000
				CHANNELS 3 Zrotation Yrotation Xrotation
				JOINT Head_virtual
				{
					OFFSET 0.000000 0.000000 0.000000
					CHANNELS 3 Zrotation Yrotation Xrotation
					JOINT Head
					{
						OFFSET 0.000000 0.927525 0.000000
						CHANNELS 3 Zrotation Yrotation Xrotation
						End Site
						{
							OFFSET 0.000000 0.000000 0.000000
						}
					}
				}
				JOINT LeftUpArm_virtual
				{
					OFFSET 0.000000 0.000000 0.000000
					CHANNELS 3 Zrotation Yrotation Xrotation
					JOINT LeftUpArm
					{
						OFFSET 1.248820 0.000000 0.000000
						CHANNELS 3 Zrotation Yrotation Xrotation
						JOINT LeftForeArm
						{
							OFFSET 2.597580 0.000000 0.000000
							CHANNELS 3 Zrotation Yrotation Xrotation
							JOINT LeftHand
							{
								OFFSET 2.455420 0.000000 0.000000
								CHANNELS 3 Zrotation Yrotation Xrotation
								End Site
								{
									OFFSET 0.000000 0.000000 0.000000
								}
							}
						}
					}
				}
				JOINT RightUpArm_virtual
				{
					OFFSET -0.000000 -0.000000 -0.000000
					CHANNELS 3 Zrotation Yrotation Xrotation
					JOINT RightUpArm
					{
						OFFSET -1.248820 -0.000000 -0.000000
						CHANNELS 3 Zrotation Yrotation Xrotation
						JOINT RightForeArm
						{
							OFFSET -2.597580 -0.000000 -0.000000
							CHANNELS 3 Zrotation Yrotation Xrotation
							JOINT RightHand
							{
								OFFSET -2.455420 -0.000000 -0.000000
								CHANNELS 3 Zrotation Yrotation Xrotation
								End Site
								{
									OFFSET 0.000000 0.000000 0.000000
								}
							}
						}
					}
				}
			}
		}
	}
	JOINT LeftUpLeg
	{
		OFFSET 1.271939 0.000000 0.000000
		CHANNELS 3 Zrotation Yrotation Xrotation
		JOINT LeftLowLeg
		{
			OFFSET 0.000000 -4.342910 0.000000
			CHANNELS 3 Zrotation Yrotation Xrotation
			JOINT LeftFoot
			{
				OFFSET 0.000000 -4.487670 0.000000
				CHANNELS 3 Zrotation Yrotation Xrotation
				JOINT LeftToeBase
				{
					OFFSET 0.000000 0.000000 1.515070
					CHANNELS 3 Zrotation Yrotation Xrotation
					End Site
					{
						OFFSET 0.000000 0.000000 0.000000
					}
				}
			}
		}
	}
	JOINT RightUpLeg
	{
		OFFSET -1.271939 0.000000 0.000000
		CHANNELS 3 Zrotation Yrotation Xrotation
		JOINT RightLowLeg
		{
			OFFSET 0.000000 -4.342910 0.000000
			CHANNELS 3 Zrotation Yrotation Xrotation
			JOINT RightFoot
			{
				OFFSET 0.000000 -4.487670 0.000000
				CHANNELS 3 Zrotation Yrotation Xrotation
				JOINT RightToeBase
				{
					OFFSET 0.000000 0.000000 1.515070
					CHANNELS 3 Zrotation Yrotation Xrotation
					End Site
					{
						OFFSET 0.000000 0.000000 0.000000
					}
				}
			}
		}
	}
}
MOTION
Frames: 7
Frame Time: 0.041667
-17.096543 6.622304 40.294064 -176.506329 7.032310 -168.773220 11.585734 6.977264 12.704036 -19.057890 -3.260222 38.095864 0.000000 0.000000 0.000000 -2.867022 16.071719 29.707301 -2.886635 4.978719 -78.893565 -16.229300 -4.918750 -8.502260 -19.275900 -14.766900 -12.791500 0.000000 -72.552399 0.000000 34.130100 4.403380 -5.969270 28.329599 3.345840 2.930800 34.452599 -4.521140 18.100100 0.000000 78.477898 0.000000 -28.066299 7.085250 -19.003901 -8.487662 24.525632 -75.907224 0.000000 0.000000 82.095703 -2.980887 9.413608 -6.061021 0.000000 0.000000 -14.533131 -0.143099 0.081411 -72.133579 0.000000 0.000000 81.523499 22.241673 -3.020533 -4.870682 0.000000 0.000000 -23.415620 
-17.099217 6.561735 40.329693 -176.393897 6.675029 -170.587682 10.650663 6.170134 10.276371 -17.118081 -1.242633 42.393400 0.000000 0.000000 0.000000 -2.346324 14.895140 25.827590 -2.974900 5.306378 -76.510532 -15.848500 -6.622320 -9.378670 -19.483500 -16.295099 -13.428900 0.000000 -72.732201 0.000000 34.217701 4.635140 -5.461490 26.723801 2.819900 0.507186 35.842098 -3.247290 17.640800 0.000000 77.444801 0.000000 -28.282000 7.540210 -18.698099 -7.545155 24.267811 -74.766456 0.000000 0.000000 82.909897 -2.879557 9.476866 -5.961855 0.000000 0.000000 -14.619500 -0.140744 -0.025167 -71.167115 0.000000 0.000000 82.473297 22.053787 -3.044882 -4.682626 0.000000 0.000000 -23.343190 
-17.100530 6.513289 40.359949 -176.329311 6.333397 -172.483959 10.885131 5.976531 9.757610 -17.707236 -1.108013 43.438843 0.000000 0.000000 0.000000 -1.716111 14.638045 26.060876 -3.260925 6.084897 -76.484954 -16.092199 -6.966090 -8.853990 -18.465099 -17.311600 -13.853500 0.000000 -72.530899 0.000000 33.961700 4.240220 -5.309240 27.423500 3.109060 0.592676 35.758400 -2.270010 16.910500 0.000000 76.188004 0.000000 -28.549999 8.051770 -17.974100 -6.557154 23.958887 -73.408240 0.000000 0.000000 83.565002 -2.898436 9.515496 -5.668240 0.000000 0.000000 -14.703580 -0.152016 -0.138603 -69.982256 0.000000 0.000000 83.187500 21.998922 -3.271960 -4.392975 0.000000 0.000000 -23.427500 
-17.102068 6.471543 40.385909 -176.263795 6.022781 -174.443612 11.581123 6.074541 9.362036 -19.022038 -0.925754 44.409124 0.000000 0.000000 0.000000 -0.900562 14.499447 26.177250 -3.414521 7.299686 -76.185481 -14.788100 -7.508700 -11.593700 -20.021900 -16.581499 -10.927500 0.000000 -72.702400 0.000000 33.721802 3.463190 -4.939240 28.306801 3.311280 0.634531 35.878201 -1.406640 16.319901 0.000000 74.991203 0.000000 -29.156900 9.231790 -17.587000 -5.534897 23.639051 -71.965902 0.000000 0.000000 84.225700 -2.960313 9.505427 -5.168452 0.000000 0.000000 -14.792029 -0.155489 -0.276714 -68.630705 0.000000 0.000000 83.794098 22.167592 -3.471418 -4.142915 0.000000 0.000000 -23.500420 
-17.102665 6.436101 40.403785 -176.273498 5.676098 -176.404651 12.001823 6.085080 8.668706 -19.791789 -0.447979 45.789798 0.000000 0.000000 0.000000 -0.044716 14.074205 25.628530 -3.374912 8.361194 -75.600357 -14.763700 -8.028970 -11.145300 -19.298000 -17.589899 -10.807300 0.000000 -72.754700 0.000000 33.311600 2.915830 -5.154080 28.947201 3.323260 0.362774 35.963501 -0.664753 15.764500 0.000000 74.095001 0.000000 -29.497299 9.965420 -16.993000 -4.571357 23.254391 -70.428981 0.000000 0.000000 84.829903 -3.026919 9.445386 -4.626964 0.000000 0.000000 -14.963596 -0.218943 -0.519565 -67.170299 0.000000 0.000000 84.389397 22.341769 -3.563082 -4.052446 0.000000 0.000000 -23.520400 
-17.106269 6.403878 40.418470 -176.297664 5.380901 -178.470796 13.397605 6.661304 8.870833 -22.381394 -0.746300 45.964625 0.000000 0.000000 0.000000 0.984081 13.922403 26.262851 -3.614853 9.820868 -75.532568 -14.397400 -7.880190 -9.978980 -18.350201 -18.349600 -10.523400 0.000000 -72.864403 0.000000 33.249500 2.502660 -5.435420 30.746000 3.617090 1.107160 35.513401 -0.075234 15.098000 0.000000 73.355301 0.000000 -29.605600 10.557900 -17.110901 -3.611378 22.886759 -68.758508 0.000000 0.000000 85.427902 -3.115439 9.368349 -4.048689 0.000000 0.000000 -15.220935 -0.314392 -0.810574 -65.545006 0.000000 0.000000 84.924698 22.670652 -3.489133 -3.959452 0.000000 0.000000 -23.420220 
-17.110576 6.374673 40.428247 -176.335787 5.124396 179.441921 14.483990 7.068518 8.568286 -24.196596 -0.372592 46.939098 0.000000 0.000000 0.000000 1.962878 13.572130 25.613035 -3.374996 11.188856 -74.549117 -13.648200 -8.242030 -9.200240 -18.128901 -19.005301 -10.092900 0.000000 -73.096100 0.000000 33.125900 2.101360 -5.399370 31.898500 3.610950 0.980780 35.414600 0.431915 14.619200 0.000000 72.839600 0.000000 -29.375500 10.850100 -17.283600 -2.768186 22.637912 -67.038506 0.000000 0.000000 85.982300 -3.184066 9.275384 -3.548352 0.000000 0.000000 -15.467874 -0.436864 -1.153060 -63.843415 0.000000 0.000000 85.391998 23.154682 -3.252983 -3.814656 0.000000 0.000000 -23.512400 
